REM MD5 f137525acb30fc25a9a9cea6749e9640
FILE "Colin McRae Rally (Europe) (En,Fr,De,Es) (Rev 1).bin" BINARY
  TRACK 01 MODE2/2352
    INDEX 01 00:00:00
  TRACK 02 AUDIO
    INDEX 00 32:51:72
    INDEX 01 32:53:72
  TRACK 03 AUDIO
    INDEX 00 38:07:72
    INDEX 01 38:09:72
  TRACK 04 AUDIO
    INDEX 00 41:07:22
    INDEX 01 41:09:22
REM LEADOUT 46:23:20
